<?xml version="1.0" encoding="UTF-8"?>
<svg xmlns="http://www.w3.org/2000/svg" width="1800" height="1200" viewBox="0 0 1800 1200">
  <!-- Define styles -->
  <defs>
    <style>
      .phase1 { fill: #FF6B6B; }
      .phase2 { fill: #4ECDC4; }
      .phase3 { fill: #45B7D1; }
      .phase4 { fill: #FFA07A; }
      .phase5 { fill: #98D8C8; }
      .bar { stroke: #333; stroke-width: 1; }
      .title { font-size: 24px; font-weight: bold; fill: #333; }
      .label { font-size: 11px; fill: #333; }
      .text-label { font-size: 10px; fill: white; font-weight: bold; text-anchor: middle; }
      .grid-line { stroke: #ccc; stroke-width: 1; stroke-dasharray: 3,3; }
      .milestone { stroke: darkred; stroke-width: 2; stroke-dasharray: 5,5; }
      .legend { font-size: 12px; fill: #333; }
    </style>
  </defs>

  <!-- Background -->
  <rect width="1800" height="1200" fill="white"/>

  <!-- Title -->
  <text x="900" y="40" text-anchor="middle" class="title">RiskPilot - Gantt Chart (24-Week Project Timeline)</text>

  <!-- Legend -->
  <rect x="1150" y="60" width="200" height="120" fill="lightyellow" stroke="#333" stroke-width="2" rx="5"/>
  <text x="1160" y="80" class="legend">Project Phases:</text>
  <rect x="1165" y="90" width="15" height="15" class="phase1"/>
  <text x="1190" y="103" class="legend">Phase 1 - Requirements</text>
  
  <rect x="1165" y="115" width="15" height="15" class="phase2"/>
  <text x="1190" y="128" class="legend">Phase 2 - Design</text>
  
  <rect x="1165" y="140" width="15" height="15" class="phase3"/>
  <text x="1190" y="153" class="legend">Phase 3 - Development</text>
  
  <rect x="1165" y="165" width="15" height="15" class="phase4"/>
  <text x="1190" y="178" class="legend">Phase 4 - Testing</text>

  <!-- Timeline header -->
  <g id="timeline-header">
    <text x="150" y="170" class="label" font-weight="bold">Activities</text>
    <line x1="200" y1="180" x2="1400" y2="180" stroke="#333" stroke-width="2"/>
    
    <!-- Week markers -->
    <text x="220" y="165" text-anchor="middle" class="label" font-size="10">W1</text>
    <text x="250" y="165" text-anchor="middle" class="label" font-size="10">W2</text>
    <text x="280" y="165" text-anchor="middle" class="label" font-size="10">W3</text>
    <text x="310" y="165" text-anchor="middle" class="label" font-size="10">W4</text>
    <text x="340" y="165" text-anchor="middle" class="label" font-size="10">W5</text>
    <text x="370" y="165" text-anchor="middle" class="label" font-size="10">W6</text>
    <text x="400" y="165" text-anchor="middle" class="label" font-size="10">W7</text>
    <text x="430" y="165" text-anchor="middle" class="label" font-size="10">W8</text>
    <text x="460" y="165" text-anchor="middle" class="label" font-size="10">W9</text>
    <text x="490" y="165" text-anchor="middle" class="label" font-size="10">W10</text>
    <text x="520" y="165" text-anchor="middle" class="label" font-size="10">W11</text>
    <text x="550" y="165" text-anchor="middle" class="label" font-size="10">W12</text>
    <text x="580" y="165" text-anchor="middle" class="label" font-size="10">W13</text>
    <text x="610" y="165" text-anchor="middle" class="label" font-size="10">W14</text>
    <text x="640" y="165" text-anchor="middle" class="label" font-size="10">W15</text>
    <text x="670" y="165" text-anchor="middle" class="label" font-size="10">W16</text>
    <text x="700" y="165" text-anchor="middle" class="label" font-size="10">W17</text>
    <text x="730" y="165" text-anchor="middle" class="label" font-size="10">W18</text>
    <text x="760" y="165" text-anchor="middle" class="label" font-size="10">W19</text>
    <text x="790" y="165" text-anchor="middle" class="label" font-size="10">W20</text>
    <text x="820" y="165" text-anchor="middle" class="label" font-size="10">W21</text>
    <text x="850" y="165" text-anchor="middle" class="label" font-size="10">W22</text>
    <text x="880" y="165" text-anchor="middle" class="label" font-size="10">W23</text>
    <text x="910" y="165" text-anchor="middle" class="label" font-size="10">W24</text>

    <!-- Vertical grid lines -->
    <line x1="220" y1="180" x2="220" y2="1050" class="grid-line"/>
    <line x1="250" y1="180" x2="250" y2="1050" class="grid-line"/>
    <line x1="280" y1="180" x2="280" y2="1050" class="grid-line"/>
    <line x1="310" y1="180" x2="310" y2="1050" class="grid-line"/>
    <line x1="340" y1="180" x2="340" y2="1050" class="grid-line"/>
    <line x1="370" y1="180" x2="370" y2="1050" class="grid-line"/>
    <line x1="400" y1="180" x2="400" y2="1050" class="grid-line"/>
    <line x1="430" y1="180" x2="430" y2="1050" class="grid-line"/>
    <line x1="460" y1="180" x2="460" y2="1050" class="grid-line"/>
    <line x1="490" y1="180" x2="490" y2="1050" class="grid-line"/>
    <line x1="520" y1="180" x2="520" y2="1050" class="grid-line"/>
    <line x1="550" y1="180" x2="550" y2="1050" class="grid-line"/>
    <line x1="580" y1="180" x2="580" y2="1050" class="grid-line"/>
    <line x1="610" y1="180" x2="610" y2="1050" class="grid-line"/>
    <line x1="640" y1="180" x2="640" y2="1050" class="grid-line"/>
    <line x1="670" y1="180" x2="670" y2="1050" class="grid-line"/>
    <line x1="700" y1="180" x2="700" y2="1050" class="grid-line"/>
    <line x1="730" y1="180" x2="730" y2="1050" class="grid-line"/>
    <line x1="760" y1="180" x2="760" y2="1050" class="grid-line"/>
    <line x1="790" y1="180" x2="790" y2="1050" class="grid-line"/>
    <line x1="820" y1="180" x2="820" y2="1050" class="grid-line"/>
    <line x1="850" y1="180" x2="850" y2="1050" class="grid-line"/>
    <line x1="880" y1="180" x2="880" y2="1050" class="grid-line"/>
    <line x1="910" y1="180" x2="910" y2="1050" class="grid-line"/>
  </g>

  <!-- Phase 1 Activities (Weeks 0-3) -->
  <g id="phase1-activities">
    <text x="10" y="210" class="label">1. Req Gathering</text>
    <rect x="220" y="200" width="60" height="15" class="bar phase1"/>
    <text x="250" y="211" class="text-label" font-size="9">2w</text>

    <text x="10" y="240" class="label">2. SRS Document</text>
    <rect x="280" y="230" width="35" height="15" class="bar phase1"/>
    <text x="298" y="241" class="text-label" font-size="9">1.1w</text>

    <text x="10" y="270" class="label">3. Use Cases</text>
    <rect x="280" y="260" width="30" height="15" class="bar phase1"/>
    <text x="295" y="271" class="text-label" font-size="9">1w</text>
  </g>

  <!-- Phase 2 Activities (Weeks 4-8) -->
  <g id="phase2-activities">
    <text x="10" y="300" class="label">4. Architecture</text>
    <rect x="310" y="290" width="60" height="15" class="bar phase2"/>
    <text x="340" y="301" class="text-label" font-size="9">2w</text>

    <text x="10" y="330" class="label">5. DB Schema</text>
    <rect x="310" y="320" width="60" height="15" class="bar phase2"/>
    <text x="340" y="331" class="text-label" font-size="9">2w</text>

    <text x="10" y="360" class="label">6. API Design</text>
    <rect x="310" y="350" width="42" height="15" class="bar phase2"/>
    <text x="331" y="361" class="text-label" font-size="9">1.4w</text>

    <text x="10" y="390" class="label">7. UI/UX Design</text>
    <rect x="310" y="380" width="45" height="15" class="bar phase2"/>
    <text x="333" y="391" class="text-label" font-size="9">1.5w</text>
  </g>

  <!-- Phase 3 Activities (Weeks 9-18) -->
  <g id="phase3-activities">
    <text x="10" y="420" class="label">8. Backend Setup</text>
    <rect x="430" y="410" width="33" height="15" class="bar phase3"/>
    <text x="447" y="421" class="text-label" font-size="9">1.1w</text>

    <text x="10" y="450" class="label">9. Auth Module</text>
    <rect x="460" y="440" width="63" height="15" class="bar phase3"/>
    <text x="492" y="451" class="text-label" font-size="9">2.1w</text>

    <text x="10" y="480" class="label">10. URL Analysis</text>
    <rect x="460" y="470" width="90" height="15" class="bar phase3"/>
    <text x="505" y="481" class="text-label" font-size="9">3w</text>

    <text x="10" y="510" class="label">11. Email Analysis</text>
    <rect x="460" y="500" width="60" height="15" class="bar phase3"/>
    <text x="490" y="511" class="text-label" font-size="9">2w</text>

    <text x="10" y="540" class="label">12. File Analysis</text>
    <rect x="460" y="530" width="60" height="15" class="bar phase3"/>
    <text x="490" y="541" class="text-label" font-size="9">2w</text>

    <text x="10" y="570" class="label">13. Description AI</text>
    <rect x="460" y="560" width="60" height="15" class="bar phase3"/>
    <text x="490" y="571" class="text-label" font-size="9">2w</text>

    <text x="10" y="600" class="label">14. Frontend Setup</text>
    <rect x="430" y="590" width="30" height="15" class="bar phase3"/>
    <text x="445" y="601" class="text-label" font-size="9">1w</text>

    <text x="10" y="630" class="label">15. Auth Pages</text>
    <rect x="460" y="620" width="63" height="15" class="bar phase3"/>
    <text x="492" y="631" class="text-label" font-size="9">2.1w</text>

    <text x="10" y="660" class="label">16. Analysis UI</text>
    <rect x="640" y="650" width="90" height="15" class="bar phase3"/>
    <text x="685" y="661" class="text-label" font-size="9">3w</text>

    <text x="10" y="690" class="label">19. Integration</text>
    <rect x="760" y="680" width="42" height="15" class="bar phase3"/>
    <text x="781" y="691" class="text-label" font-size="9">1.4w</text>

    <text x="10" y="720" class="label">20. External APIs</text>
    <rect x="790" y="710" width="42" height="15" class="bar phase3"/>
    <text x="811" y="721" class="text-label" font-size="9">1.4w</text>
  </g>

  <!-- Phase 4 Activities (Weeks 19-22) -->
  <g id="phase4-activities">
    <text x="10" y="750" class="label">22. Unit Testing</text>
    <rect x="820" y="740" width="60" height="15" class="bar phase4"/>
    <text x="850" y="751" class="text-label" font-size="9">2w</text>

    <text x="10" y="780" class="label">23. Integration Test</text>
    <rect x="850" y="770" width="42" height="15" class="bar phase4"/>
    <text x="871" y="781" class="text-label" font-size="9">1.4w</text>

    <text x="10" y="810" class="label">24. System Testing</text>
    <rect x="880" y="800" width="42" height="15" class="bar phase4"/>
    <text x="901" y="811" class="text-label" font-size="9">1.4w</text>

    <text x="10" y="840" class="label">25. UAT & Bugs</text>
    <rect x="910" y="830" width="42" height="15" class="bar phase4"/>
    <text x="931" y="841" class="text-label" font-size="9">1.4w</text>
  </g>

  <!-- Phase 5 Activities (Weeks 23-24) -->
  <g id="phase5-activities">
    <text x="10" y="870" class="label">26. Documentation</text>
    <rect x="880" y="860" width="42" height="15" class="bar phase5"/>
    <text x="901" y="871" class="text-label" font-size="9">1.4w</text>

    <text x="10" y="900" class="label">27. Deployment</text>
    <rect x="910" y="890" width="30" height="15" class="bar phase5"/>
    <text x="925" y="901" class="text-label" font-size="9">1w</text>

    <text x="10" y="930" class="label">28. Go-Live</text>
    <rect x="910" y="920" width="30" height="15" class="bar phase5"/>
    <text x="925" y="931" class="text-label" font-size="9">1w</text>
  </g>

  <!-- Milestones -->
  <g id="milestones">
    <line x1="280" y1="180" x2="280" y2="1050" class="milestone"/>
    <text x="280" y="1070" text-anchor="middle" class="label" font-weight="bold" fill="darkred">Week 3: Req Done</text>

    <line x1="400" y1="180" x2="400" y2="1050" class="milestone"/>
    <text x="400" y="1070" text-anchor="middle" class="label" font-weight="bold" fill="darkred">Week 8: Design Done</text>

    <line x1="460" y1="180" x2="460" y2="1050" class="milestone"/>
    <text x="460" y="1070" text-anchor="middle" class="label" font-weight="bold" fill="darkred">Week 9: Dev Start</text>

    <line x1="760" y1="180" x2="760" y2="1050" class="milestone"/>
    <text x="760" y="1070" text-anchor="middle" class="label" font-weight="bold" fill="darkred">Week 18: Dev Done</text>

    <line x1="820" y1="180" x2="820" y2="1050" class="milestone"/>
    <text x="820" y="1070" text-anchor="middle" class="label" font-weight="bold" fill="darkred">Week 19: Test Start</text>

    <line x1="910" y1="180" x2="910" y2="1050" class="milestone"/>
    <text x="910" y="1070" text-anchor="middle" class="label" font-weight="bold" fill="darkred">Week 24: GO-LIVE!</text>
  </g>

  <!-- Summary -->
  <g id="summary">
    <rect x="1050" y="300" width="300" height="180" fill="lightyellow" stroke="#333" stroke-width="2" rx="5"/>
    <text x="1200" y="325" text-anchor="middle" class="legend" font-weight="bold">PROJECT SUMMARY</text>
    <text x="1065" y="350" class="legend">Total Duration: 24 weeks</text>
    <text x="1065" y="375" class="legend">Critical Path: 25.6 weeks</text>
    <text x="1065" y="400" class="legend">Total Activities: 25</text>
    <text x="1065" y="425" class="legend">Team Size: 12 people</text>
    <text x="1065" y="450" class="legend">Effort: ~330 person-days</text>
  </g>
</svg>
